{"title":"Transformers Age of Extinction 2014 New Best Source","uid":10734152,"size":969239774,"categoryP":"video","categoryS":"movies","magnet":"?xt=urn:btih:f3bca98494b1c57292b0c6fe74d9e52bf04972fc&amp;dn=Transformers+Age+of+Extinction+2014+New+Best+Source&amp;tr=udp%3A%2F%2Ftracker.openbittorrent.com%3A80&amp;tr=udp%3A%2F%2Fopen.demonii.com%3A1337&amp;tr=udp%3A%2F%2Ftracker.coppersurfer.tk%3A6969&amp;tr=udp%3A%2F%2Fexodus.desync.com%3A6969","seeders":2,"leechers":0,"uploader":"jongcans","files":-1,"time":1407629324,"description":"Transformers Age of Extinction 2014 New Best cam 924mb\n &lt;a href=&quot;\nhttp://i.imgur.com/Qumtkcm.jpg&quot; rel=&quot;nofollow&quot; target=&quot;_NEW&quot;&gt;\nhttp://i.imgur.com/Qumtkcm.jpg&lt;/a&gt;\n\nAn automobile mechanic and his daughter make a discovery that brings down the Autobots - and a paranoid government official - on them.\n\nDirector: Michael Bay\nWriter: Ehren Kruger\nStars: Mark Wahlberg, Nicola Peltz, Jack Reynor\nGenres: Action | Adventure | Sci-Fi\nCountry: USA\nLanguage: English\nSize: 924mb\n &lt;a href=&quot;\nhttp://www.imdb.com/title/tt2109248/&quot; rel=&quot;nofollow&quot; target=&quot;_NEW&quot;&gt;\nhttp://www.imdb.com/title/tt2109248/&lt;/a&gt;\n\nGeneral\nComplete name : Transformers.Age.of.Extinction.2014.jongcanz.avi\nFormat : AVI\nFormat/Info : Audio Video Interleave\nFile size : 924 MiB\nDuration : 2h 27mn\nOverall bit rate mode : Variable\nOverall bit rate : 877 Kbps\nWriting application : Lavf55.12.100\n\nVideo\nID : 1\nFormat : AVC\nFormat/Info : Advanced Video Codec\nFormat profile : &lt;a class=&quot;__cf_email__&quot; href=&quot;/cdn-cgi/l/email-protection&quot; data-cfemail=&quot;eaa78b8384aaa6d9c4da&quot;&gt;[email&amp;#160;protected]&lt;/a&gt;&lt;script cf-hash='f9e31' type=&quot;text/javascript&quot;&gt;\n/* &lt;![CDATA[ */!function(){try{var t=&quot;currentScript&quot;in document?document.currentScript:function(){for(var t=document.getElementsByTagName(&quot;script&quot;),e=t.length;e--;)if(t[e].getAttribute(&quot;cf-hash&quot;))return t[e]}();if(t&amp;&amp;t.previousSibling){var e,r,n,i,c=t.previousSibling,a=c.getAttribute(&quot;data-cfemail&quot;);if(a){for(e=&quot;&quot;,r=parseInt(a.substr(0,2),16),n=2;a.length-n;n+=2)i=parseInt(a.substr(n,2),16)^r,e+=String.fromCharCode(i);e=document.createTextNode(e),c.parentNode.replaceChild(e,c)}}}catch(u){}}();/* ]]&gt; */&lt;/script&gt;\nFormat settings, CABAC : Yes\nFormat settings, ReFrames : 4 frames\nCodec ID : H264\nDuration : 2h 27mn\nBit rate : 692 Kbps\nWidth : 720 pixels\nHeight : 304 pixels\nDisplay aspect ratio : 2.35:1\nFrame rate mode : Variable\nFrame rate : 23.976 fps\nColor space : YUV\nChroma subsampling : 4:2:0\nBit depth : 8 bits\nScan type : Progressive\nBits/(Pixel*Frame) : 0.132\nStream size : 730 MiB (79%)\n\nAudio\nID : 0\nFormat : MPEG Audio\nFormat version : Version 1\nFormat profile : Layer 3\nMode : Joint stereo\nMode extension : MS Stereo\nCodec ID : 55\nCodec ID/Hint : MP3\nDuration : 2h 27mn\nBit rate mode : Variable\nBit rate : 172 Kbps\nChannel(s) : 2 channels\nSampling rate : 48.0 KHz\nCompression mode : Lossy\nStream size : 181 MiB (20%)\nAlignment : Aligned on interleaves\nInterleave, duration : 42 ms (1.00 video frame)\n\n\nScreenshots:\n\n","torrent":{"xt":"urn:btih:f3bca98494b1c57292b0c6fe74d9e52bf04972fc","amp;dn":"Transformers+Age+of+Extinction+2014+New+Best+Source","amp;tr":["udp%3A%2F%2Ftracker.openbittorrent.com%3A80","udp%3A%2F%2Fopen.demonii.com%3A1337","udp%3A%2F%2Ftracker.coppersurfer.tk%3A6969","udp%3A%2F%2Fexodus.desync.com%3A6969"],"infoHash":"f3bca98494b1c57292b0c6fe74d9e52bf04972fc","infoHashBuffer":{"type":"Buffer","data":[243,188,169,132,148,177,197,114,146,176,198,254,116,217,229,43,240,73,114,252]},"announce":[],"urlList":[]}}